<svg xmlns="http://www.w3.org/2000/svg" xmlns:xlink="http://www.w3.org/1999/xlink" x="0px" y="0px" viewBox="0 0 145.11 36.329" style="enable-background:new 0 0 145.11 36.329;" xml:space="preserve">
  <g class="logo-path-1" fill-rule="evenodd"  fill="rgb(250, 250, 250)">
    <path d="M26.051,7.622c4.838,0,7.257,2.473,7.257,7.418v11.128c0,1.613-0.806,2.419-2.419,2.419s-2.419-0.817-2.419-2.451V14.943
      c0-1.656-0.822-2.484-2.467-2.484h-4.016l0.032,13.708c0,1.613-0.806,2.419-2.419,2.419c-1.613,0-2.419-0.817-2.419-2.451V14.943
      c0-1.656-0.817-2.484-2.451-2.484h-4v13.644c0,1.634-0.817,2.451-2.451,2.451c-1.591,0-2.387-0.817-2.387-2.451V10.024
      c0-1.591,0.822-2.403,2.467-2.435L26.051,7.622z"/>
    <path d="M54.305,10.024v17.869c0,4.763-2.419,7.144-7.257,7.144h-5.032c-1.548,0-2.328-0.806-2.338-2.419
      c-0.011-1.602,0.758-2.403,2.306-2.403h5.757c1.15,0.011,1.726-0.548,1.726-1.677h-5.677c-4.838,0-7.257-2.473-7.257-7.418V9.992
      c0-1.613,0.806-2.419,2.419-2.419s2.419,0.817,2.419,2.451v11.193c0,1.656,0.822,2.484,2.467,2.484h5.628V10.024
      c0-1.634,0.822-2.451,2.467-2.451C53.515,7.573,54.305,8.39,54.305,10.024z"/>
  </g>
  <g class="logo-path-2" fill-rule="evenodd"  fill="rgb(74, 200, 237)" >
    <path d="M62.433,28.555c-1.634,0-2.451-0.817-2.451-2.451V12.46c-1.634,0-2.441-0.779-2.419-2.338c0-1.634,0.806-2.467,2.419-2.5
      l2.419-0.032c1.613,0.032,2.419,0.844,2.419,2.435v16.079C64.82,27.738,64.025,28.555,62.433,28.555z M61.087,1.461
      c-0.382,0.204-0.68,0.5-0.895,0.887s-0.323,0.79-0.323,1.21c0,0.409,0.108,0.804,0.323,1.185s0.511,0.677,0.887,0.887
      c0.376,0.21,0.774,0.314,1.193,0.314c0.409,0,0.804-0.105,1.185-0.314c0.382-0.21,0.677-0.505,0.887-0.887
      c0.21-0.382,0.314-0.777,0.314-1.185c0-0.419-0.108-0.822-0.323-1.21c-0.215-0.387-0.513-0.683-0.895-0.887
      s-0.771-0.306-1.169-0.306C61.864,1.155,61.469,1.257,61.087,1.461z"/>
    <path d="M68.062,26.103V10.024c0-1.591,0.806-2.387,2.419-2.387l8.096-0.016c4.838,0,7.257,2.473,7.257,7.418v11.128
      c0,1.613-0.806,2.419-2.419,2.419s-2.419-0.817-2.419-2.451V14.943c0-1.656-0.817-2.484-2.451-2.484H72.9v13.644
      c0,1.634-0.817,2.451-2.451,2.451C68.857,28.555,68.062,27.738,68.062,26.103z"/>
    <path d="M98.01,5.993l-1.645,0.016c-1.645,0-2.467,0.822-2.467,2.467v2.371l4.016-0.016c1.634,0.032,2.451,0.833,2.451,2.403
      c0,1.613-0.844,2.414-2.532,2.403l-3.935,0.016v10.531c0.011,1.613-0.796,2.414-2.419,2.403c-1.613,0-2.419-0.806-2.419-2.419
      V8.589c0-4.946,2.419-7.418,7.257-7.418h1.661c1.613,0,2.419,0.796,2.419,2.387C100.397,5.181,99.601,5.993,98.01,5.993z"/>
    <path d="M117.314,16.491c-1.645,0-2.467-0.817-2.467-2.451v-1.58h-3.983c-1.645,0-2.467,0.828-2.467,2.484v11.193
      c0,1.634-0.806,2.451-2.419,2.451s-2.419-0.806-2.419-2.419V15.04c0-4.946,2.419-7.418,7.257-7.418l6.451,0.016
      c1.613,0,2.419,0.796,2.419,2.387v4.016C119.684,15.674,118.894,16.491,117.314,16.491z"/>
    <path d="M138.262,28.587c-1.645,0-2.467-0.817-2.467-2.451V22.12l-8.015-0.016l-0.016,4.032c0,1.634-0.806,2.451-2.419,2.451
      c-1.613,0-2.419-0.806-2.419-2.419V15.04c0-4.946,2.419-7.418,7.257-7.418l8.031,0.016c1.613,0,2.419,0.796,2.419,2.387v16.111
      C140.633,27.77,139.843,28.587,138.262,28.587z M135.795,17.249v-4.79h-5.564c-1.645,0-2.467,0.828-2.467,2.484v2.306H135.795z"/>
  </g>
</svg>
